<svg width="91" height="30" viewBox="0 0 91 30" fill="none" xmlns="http://www.w3.org/2000/svg">
<path fill-rule="evenodd" clip-rule="evenodd" d="M10.1162 8.03011C9.9066 7.59372 9.70795 7.15152 9.51108 6.71326C9.49934 6.68714 9.48661 6.66031 9.4737 6.63308C9.36746 6.40913 9.24873 6.15883 9.56966 6.06522L10.4839 5.80501C11.1125 5.62604 11.7404 5.44726 12.3685 5.26906C12.7807 5.1521 13.1927 5.03401 13.6048 4.9159C14.6734 4.60959 15.7424 4.30319 16.8158 4.01622C16.9641 3.97494 16.9797 3.9089 16.9485 3.76855C16.8704 3.4961 16.8001 3.21541 16.7377 2.93471C16.7142 2.81913 16.6518 2.76959 16.5425 2.75308C16.3746 2.72418 16.2048 2.69322 16.0349 2.66227C15.8651 2.63131 15.6953 2.60035 15.5274 2.57145C15.2896 2.5309 15.2862 2.04766 15.5352 2.01005C15.8163 1.96878 16.0974 1.91925 16.4253 1.86146C16.3121 1.60553 16.2008 1.35785 16.0896 1.11017C15.9783 0.862494 15.867 0.614817 15.7538 0.358886C15.8922 0.293314 16.0218 0.227742 16.1551 0.160287C16.24 0.117335 16.3264 0.0736186 16.4175 0.028653C16.9251 1.25052 17.4248 2.45587 17.9323 3.7025C17.9782 3.63133 18.0231 3.56379 18.0665 3.49824L18.067 3.4975C18.3219 3.11341 18.5623 2.71964 18.8026 2.32585C19.0315 1.95089 19.2604 1.57591 19.5018 1.20924C19.6111 1.04412 19.7829 0.879005 19.9547 0.821214C20.962 0.474469 21.977 0.135979 23.039 0.0121416C23.3279 -0.0208821 23.3591 -0.00436976 23.3669 0.29284C23.3899 0.963842 23.144 1.58681 22.7657 2.11738C22.2191 2.89343 21.5086 3.46308 20.7121 3.90064C20.1452 4.2066 19.5648 4.47478 18.9812 4.74446L18.9107 4.77707C18.7461 4.85315 18.5813 4.92947 18.4165 5.00692C18.2525 5.08122 18.1744 5.15553 18.2134 5.37018C18.4084 6.33205 18.5979 7.29964 18.782 8.26343C18.8192 8.45776 18.8561 8.65194 18.8928 8.84589C18.9659 9.23262 19.0436 9.61936 19.1214 10.0064C19.2927 10.8585 19.4642 11.712 19.5877 12.5693C19.8766 14.5837 20.1187 16.5981 20.3451 18.6208C20.4216 19.3015 20.4513 19.9932 20.4808 20.6824C20.4875 20.8375 20.4941 20.9924 20.5013 21.1471C20.5701 22.4237 20.6239 23.7082 20.6774 24.9852L20.6809 25.0686L20.7746 27.1532L20.8683 29.2378L20.8917 29.7332C20.8995 29.8405 20.8605 29.8983 20.7511 29.8983C20.47 29.9065 20.1811 29.923 19.9 29.9395C19.7673 29.9478 19.7595 29.857 19.7517 29.7579L19.7454 29.6797C19.6694 28.7311 19.5928 27.7752 19.494 26.8271C19.4598 26.5165 19.3838 26.2059 19.3078 25.8953L19.2997 25.862L19.2754 25.7621L18.2681 21.6259C18.2085 21.3906 18.1509 21.1553 18.0923 20.9157L18.092 20.9148L18.0708 20.8282C18.0211 20.6251 17.9704 20.4185 17.9167 20.2059C17.838 20.264 17.7621 20.3228 17.6874 20.3807C17.5177 20.5123 17.3538 20.6394 17.1749 20.7425C16.8236 20.9489 16.7064 21.2296 16.7689 21.6507C16.7947 21.8369 16.7945 22.0255 16.7942 22.2139C16.7941 22.3681 16.7939 22.5221 16.808 22.6744C16.8626 23.1615 16.9329 23.6486 17.0266 24.1274C17.1749 24.9448 17.3233 25.7538 17.5107 26.5629C17.6852 27.32 17.8783 28.0722 18.072 28.8271L18.0722 28.828C18.1298 29.0523 18.1874 29.2769 18.2447 29.502C18.2525 29.5433 18.2603 29.5845 18.2759 29.6176C18.354 29.8075 18.2759 29.8487 18.1041 29.857C17.8465 29.8735 17.5888 29.9065 17.3311 29.9395C17.2062 29.9561 17.1515 29.9148 17.1047 29.7827C16.7455 28.7012 16.3863 27.6279 16.0193 26.5464C15.9372 26.3028 15.8537 26.0599 15.7703 25.8171C15.5682 25.2288 15.3662 24.641 15.1838 24.0449C15.0313 23.5476 14.9046 23.0395 14.7786 22.5337L14.7784 22.5329L14.7779 22.531L14.7776 22.5298C14.7491 22.4155 14.7206 22.3013 14.6919 22.1873C14.6607 22.0717 14.6372 22.0222 14.5123 22.0635C13.8062 22.2849 13.0909 22.4629 12.3685 22.6044C12.0171 22.6732 11.6625 22.7176 11.3084 22.7619C10.9905 22.8017 10.673 22.8415 10.3583 22.8989C10.2802 22.9071 10.1865 22.9649 10.1475 23.031C9.21048 24.6574 7.92211 25.8627 6.24332 26.5892C6.14972 26.6288 6.11098 26.6737 6.11114 26.7617C6.1111 26.7841 6.11361 26.8093 6.11839 26.838C6.27456 27.8039 6.42291 28.7699 6.56346 29.7358C6.56796 29.7739 6.56987 29.8119 6.57217 29.8579C6.57385 29.8914 6.57582 29.9291 6.57908 29.9741C6.46221 29.9769 6.34625 29.9807 6.23088 29.9844C6.00709 29.9917 5.78555 29.9989 5.564 29.9989C5.52496 29.9989 5.4703 29.9081 5.46249 29.8503L5.40226 29.554C5.19601 28.5395 4.99091 27.5306 4.79879 26.5149C4.79415 26.4937 4.79196 26.4705 4.79192 26.4464C4.79198 26.3484 4.82694 26.2336 4.87687 26.161C4.98284 26.0145 5.08899 25.8684 5.19526 25.7225C5.41999 25.4154 5.64582 25.11 5.87144 24.8049C6.26172 24.2771 6.65136 23.7501 7.03351 23.2172C7.06778 23.1737 7.10365 23.1225 7.15048 23.0557C7.17105 23.0263 7.19375 22.9939 7.21936 22.9578L7.2186 22.9577L7.21936 22.9567C7.12687 22.9515 7.03818 22.948 6.95209 22.9445C6.76201 22.9369 6.58465 22.9299 6.4073 22.9071C6.1262 22.8658 5.96222 22.9649 5.79044 23.2126C5.23605 24.0217 4.54892 24.6904 3.72124 25.161C3.50505 25.2813 3.28057 25.3797 3.04779 25.4817C2.96109 25.5197 2.87324 25.5582 2.78424 25.5985V25.5996C2.89584 26.048 3.00822 26.4981 3.1209 26.9492L3.12213 26.9542L3.12352 26.9597L3.12411 26.9621L3.17189 27.1534L3.17246 27.1557C3.39746 28.0566 3.6235 28.9617 3.84617 29.8668C3.77636 29.8668 3.70759 29.8671 3.63967 29.8674L3.56023 29.8678C3.28511 29.8694 3.02297 29.8709 2.76082 29.8585C2.72958 29.8585 2.68273 29.7595 2.66712 29.7017C2.55313 29.3206 2.44069 28.9388 2.32822 28.557C2.02705 27.5346 1.72575 26.5117 1.39436 25.4995C1.37725 25.4452 1.36848 25.3953 1.36841 25.3475C1.36853 25.2647 1.39474 25.1878 1.44902 25.1043C2.15899 24.0814 2.86897 23.0503 3.57894 22.0191L3.57988 22.0178L3.58069 22.0166C3.62483 21.9559 3.64402 21.9032 3.6439 21.8464C3.64399 21.8024 3.63246 21.7561 3.61192 21.7018C3.11219 20.4056 2.65931 19.0929 2.41725 17.7142C2.41297 17.6893 2.41033 17.6624 2.40765 17.6351C2.40148 17.5722 2.39504 17.5065 2.36766 17.4549L2.36259 17.4346C2.36259 17.4296 2.35971 17.4276 2.35044 17.4213L2.34724 17.4191C2.34364 17.4167 2.33925 17.4138 2.33398 17.4099C2.33062 17.4067 2.32709 17.4037 2.32339 17.4007C2.13605 17.7061 1.9487 18.0115 1.74574 18.3334C1.7113 18.2827 1.68257 18.2304 1.6591 18.1767C1.56548 17.958 1.56905 17.7296 1.613 17.5172C1.64273 17.3485 1.69305 17.1898 1.7617 17.042C1.88626 16.7931 2.06049 16.5678 2.24437 16.4011C2.27261 16.3762 2.30162 16.3519 2.33136 16.3283C3.00154 15.7945 3.67712 15.2634 4.35333 14.7319C4.8274 14.3593 5.30177 13.9864 5.77482 13.6122C5.8373 13.5629 5.89928 13.513 5.96099 13.4627L6.08941 13.3592C6.71317 12.8561 7.34534 12.3462 8.11445 12.1334C8.22933 12.1016 8.34727 12.0765 8.46869 12.059C9.48845 11.9133 10.5055 11.7584 11.523 11.6036C12.2352 11.4952 12.9475 11.3867 13.6612 11.2814C13.8798 11.2483 13.997 11.1658 14.075 10.9429C14.2864 10.3026 14.5104 9.6711 14.7346 9.03877L14.7349 9.03798C14.817 8.80636 14.8992 8.57462 14.9808 8.34228C15.011 8.21448 14.9364 8.20758 14.8429 8.19892C14.8268 8.19743 14.8102 8.19589 14.7934 8.19367C14.0516 8.18542 13.3098 8.17961 12.568 8.17381C11.8263 8.168 11.0845 8.1622 10.3427 8.15394C10.2646 8.15394 10.1475 8.09615 10.1162 8.03011ZM8.93719 14.5946V14.6111H9.46035C9.63213 14.6111 9.7024 14.5286 9.71802 14.3304C9.7255 14.1486 9.61122 14.1409 9.49866 14.1333L9.48377 14.1323C9.43064 14.1276 9.37723 14.1226 9.32365 14.1176C9.09374 14.0962 8.86063 14.0745 8.63266 14.0745C8.22663 14.0745 7.8206 14.0827 7.42238 14.124C7.35729 14.1303 7.30118 14.2124 7.24723 14.2913C7.22998 14.3165 7.21296 14.3414 7.19594 14.3634C7.18813 14.38 7.23498 14.4708 7.26621 14.479C7.39895 14.5286 7.53169 14.5781 7.67224 14.5864C7.99484 14.5988 8.31304 14.5972 8.62682 14.5956C8.73076 14.5951 8.83422 14.5946 8.93719 14.5946ZM6.13791 16.3771C6.24438 16.3321 6.34459 16.2898 6.43853 16.2375C6.6083 16.1427 6.77676 16.0437 6.94552 15.9445C7.18814 15.8019 7.43138 15.659 7.68005 15.5275C7.83622 15.445 7.92211 15.3541 7.85964 15.189C7.78937 14.9991 7.63304 15.0405 7.50029 15.1066C6.95377 15.412 6.40724 15.7174 5.86852 16.0394C5.79825 16.0807 5.7514 16.221 5.73578 16.3201C5.72993 16.3448 5.80313 16.3835 5.87633 16.4222C5.90073 16.4351 5.92513 16.448 5.94661 16.4604C6.01248 16.4301 6.07625 16.4032 6.13791 16.3771ZM8.19529 16.7747C8.1178 16.7671 8.04338 16.7598 7.96896 16.7659C7.84401 16.7762 7.71906 16.786 7.59411 16.7958C7.21933 16.8252 6.84455 16.8546 6.46976 16.898C6.36045 16.9062 6.25113 16.9805 6.16524 17.0466C6.13401 17.0714 6.15743 17.2365 6.18866 17.253C6.30579 17.2943 6.43853 17.3355 6.56346 17.3273C6.80552 17.3067 7.04562 17.2798 7.28572 17.253C7.52583 17.2262 7.76594 17.1993 8.008 17.1787C8.24225 17.1539 8.30472 17.0879 8.28129 16.7824C8.25212 16.7802 8.2235 16.7774 8.19529 16.7747ZM8.03143 15.9073C8.0667 15.9046 8.09953 15.9037 8.13045 15.9028C8.19535 15.9009 8.25183 15.8993 8.30472 15.8825L9.66336 15.4119C9.83514 15.3541 10.0069 15.2881 10.1709 15.2138C10.2034 15.2023 10.2208 15.1592 10.2389 15.1145C10.2469 15.0947 10.255 15.0747 10.2646 15.0569C10.2178 15.0322 10.1631 15.0074 10.1084 14.9909C10.0876 14.9854 10.0668 14.9946 10.046 15.0037C10.0356 15.0083 10.0251 15.0129 10.0147 15.0157C9.87348 15.064 9.73167 15.1117 9.58974 15.1595C9.41648 15.2178 9.24414 15.2801 9.07179 15.3424C8.842 15.4255 8.61218 15.5086 8.38011 15.5823C8.24135 15.6263 8.08813 15.675 8.03143 15.9073ZM8.32322 13.5475C8.37821 13.5316 8.42735 13.5174 8.4765 13.4966L8.63499 13.4206C8.92367 13.2825 9.20762 13.1466 9.49158 12.993C9.53567 12.9671 9.56132 12.9087 9.58781 12.8484C9.60354 12.8126 9.61957 12.7761 9.63994 12.7453C9.61383 12.7403 9.58628 12.7322 9.55861 12.7241C9.49523 12.7055 9.43118 12.6868 9.38226 12.704C9.1587 12.79 8.9469 12.8884 8.73155 12.9884L8.63266 13.0343C8.48431 13.1086 8.32814 13.1911 8.1954 13.2902C8.14074 13.3315 8.11732 13.4223 8.10951 13.4966C8.09758 13.5092 8.14489 13.5363 8.1853 13.5594C8.19778 13.5665 8.20961 13.5733 8.21882 13.5791C8.25644 13.5669 8.29085 13.5569 8.32322 13.5475ZM10.4457 17.4389C10.489 17.48 10.5313 17.5201 10.5769 17.5254C10.7535 17.5321 10.9321 17.5355 11.1098 17.5388C11.2045 17.5406 11.299 17.5424 11.3927 17.5447C11.5315 17.548 11.6692 17.5514 11.8028 17.5337C11.8511 17.528 11.8956 17.4835 11.939 17.44C11.9589 17.4202 11.9785 17.4006 11.998 17.3851C11.9825 17.371 11.9662 17.3535 11.9497 17.3357C11.9084 17.2911 11.8653 17.2447 11.8263 17.2447C11.4124 17.2282 10.9986 17.22 10.5847 17.2282C10.5379 17.2282 10.491 17.2723 10.4442 17.3163C10.4208 17.3383 10.3973 17.3603 10.3739 17.3768C10.3986 17.3942 10.4223 17.4167 10.4457 17.4389ZM6.18866 15.2221C5.8451 15.2386 4.60358 15.7174 4.38494 15.899C4.35841 15.9215 4.33908 15.9554 4.31472 15.9981C4.30323 16.0183 4.29063 16.0404 4.27563 16.0641C4.30545 16.0641 4.33072 16.0654 4.3523 16.0664C4.38722 16.068 4.41249 16.0693 4.43179 16.0641C4.55975 16.0132 4.68727 15.9627 4.81446 15.9123L4.81547 15.9119C5.22345 15.7503 5.62797 15.59 6.0325 15.4202C6.07097 15.4028 6.09784 15.3608 6.13489 15.3029C6.15047 15.2785 6.16786 15.2514 6.18866 15.2221ZM8.16417 18.2189V18.2272C8.20906 18.2272 8.25396 18.2277 8.29885 18.2282C8.43355 18.2298 8.56824 18.2313 8.70294 18.2189C8.73811 18.2136 8.77005 18.1809 8.80292 18.1473C8.82113 18.1287 8.83962 18.1098 8.85911 18.0951C8.84349 18.0813 8.82787 18.063 8.81226 18.0446C8.78102 18.0079 8.74979 17.9712 8.71856 17.9712C8.35937 17.9547 8.00019 17.9465 7.6332 17.9465C7.59131 17.9465 7.55292 17.9799 7.51334 18.0144C7.49391 18.0313 7.47418 18.0485 7.45361 18.0621C7.47312 18.0775 7.49186 18.0962 7.51056 18.1149C7.55174 18.1559 7.59268 18.1967 7.64101 18.2024C7.77009 18.2272 7.90357 18.2241 8.03484 18.221C8.07827 18.2199 8.12146 18.2189 8.16417 18.2189ZM11.2414 14.179L11.2876 14.16C11.518 14.0651 11.7461 13.9705 11.9668 13.8681C11.998 13.8516 12.0215 13.7443 12.0059 13.7112C11.9824 13.67 11.8965 13.6204 11.8575 13.6369C11.6857 13.6865 11.5139 13.7525 11.3421 13.8186C11.2016 13.8764 11.0689 13.9424 10.9439 14.0167C10.9049 14.0415 10.8815 14.1323 10.8815 14.1901C10.8815 14.2112 10.9039 14.229 10.9303 14.2499C10.9451 14.2616 10.9611 14.2743 10.9752 14.2891C11.064 14.252 11.1529 14.2154 11.2414 14.179ZM10.0694 16.4357C10.0606 16.4232 10.0529 16.4061 10.0454 16.3896C10.0132 16.3181 9.90645 16.3107 9.85076 16.3696C9.62432 16.6008 9.40569 16.8319 9.20267 17.0714C9.17136 17.1045 9.16795 17.1634 9.16447 17.2235C9.16274 17.2533 9.161 17.2834 9.15582 17.3108C9.17766 17.3031 9.20175 17.2978 9.22624 17.2924C9.28055 17.2804 9.33678 17.2681 9.37445 17.2282C9.52021 17.0796 9.65902 16.9237 9.79783 16.7677C9.86724 16.6898 9.93665 16.6118 10.0069 16.5347C10.0284 16.5234 10.0388 16.5002 10.0509 16.4735C10.0563 16.4614 10.0621 16.4485 10.0694 16.4357ZM4.57234 17.6493C4.58406 17.6575 4.59382 17.6678 4.60358 17.6782C4.61334 17.6885 4.6231 17.6988 4.63481 17.7071C4.86125 17.575 5.08769 17.4429 5.31413 17.3025C5.33756 17.286 5.35318 17.2035 5.33756 17.1787C5.32194 17.1539 5.25167 17.1374 5.22043 17.1539C5.01742 17.2612 4.82221 17.3768 4.63481 17.5007C4.60044 17.5188 4.59128 17.5637 4.58268 17.6058C4.57955 17.6211 4.5765 17.6361 4.57234 17.6493ZM13.5597 16.6983C13.5831 16.8717 13.6612 16.946 13.7705 16.8634C13.9892 16.6983 14.1922 16.5167 14.3952 16.3268C14.6372 16.1039 14.8793 15.8727 15.1135 15.6416C15.2229 15.5425 15.2307 15.4269 15.137 15.3031C15.0474 15.1938 14.976 15.2517 14.9015 15.3122C14.8916 15.3202 14.8816 15.3283 14.8715 15.3361C14.7934 15.3939 14.7153 15.4517 14.645 15.5177C14.3405 15.8149 14.0282 16.1204 13.7315 16.4341C13.6757 16.4813 13.6398 16.5495 13.604 16.6178C13.5897 16.6451 13.5753 16.6724 13.5597 16.6983ZM12.896 13.495C12.9145 13.5146 12.9282 13.5342 12.9447 13.5579L12.9585 13.5776C12.9746 13.5776 12.9908 13.5804 13.0064 13.5831C13.0285 13.587 13.0495 13.5907 13.0678 13.5859C13.1383 13.561 13.2087 13.5369 13.279 13.5129C13.4423 13.4571 13.6044 13.4017 13.7627 13.3382C14.1219 13.1896 14.4811 13.0327 14.8324 12.8676C14.8663 12.8497 14.8879 12.8016 14.9091 12.7545C14.9172 12.7364 14.9253 12.7185 14.934 12.7025C14.9163 12.6998 14.8971 12.6946 14.8776 12.6893C14.8364 12.6781 14.7939 12.6665 14.7622 12.6777C14.2 12.9089 13.6456 13.14 13.0912 13.3795C13.0346 13.3914 12.9903 13.4251 12.9465 13.4584C12.9298 13.4711 12.9132 13.4837 12.896 13.495ZM14.3483 14.0977C14.5426 14.0671 14.7194 14.0365 14.8892 14.0071C15.04 13.981 15.1852 13.9559 15.3322 13.9326C15.4493 13.9161 15.504 13.85 15.4962 13.7262C15.4883 13.5941 15.4181 13.5446 15.3009 13.5611C15.2429 13.5699 15.185 13.5784 15.1274 13.5868C14.8596 13.6263 14.5962 13.6651 14.3327 13.7262C14.2702 13.7427 14.2078 13.8831 14.2 13.9656C14.1944 13.995 14.2523 14.0329 14.3002 14.0641C14.3195 14.0767 14.3371 14.0882 14.3483 14.0977ZM12.9194 15.4434C12.9345 15.4408 12.9495 15.439 12.9643 15.4372C12.9956 15.4335 13.0257 15.4299 13.0522 15.4186C13.4816 15.2122 13.9111 14.9976 14.3327 14.7829C14.3673 14.7647 14.3934 14.7193 14.4236 14.667C14.4342 14.6484 14.4454 14.629 14.4576 14.6096C14.1063 14.6013 12.9819 15.2205 12.9194 15.4434ZM10.566 13.4249C10.4541 13.4555 10.2935 13.4993 10.2178 13.2737C10.7078 12.9461 11.251 12.7745 11.7972 12.602C11.9856 12.5425 12.1744 12.4829 12.3616 12.4167C12.6746 12.306 12.999 12.2234 13.3254 12.1658C13.3937 12.5028 13.3883 12.5045 13.1155 12.5877L13.0912 12.5952L11.998 12.96C11.9076 12.9907 11.8172 13.0219 11.7268 13.0531L11.7258 13.0534C11.342 13.1856 10.9575 13.3181 10.566 13.4249ZM11.0767 15.2964C11.1128 15.2868 11.1454 15.2797 11.1755 15.2732C11.327 15.2403 11.4707 15.1734 11.6127 15.1072C11.6588 15.0858 11.7047 15.0644 11.7506 15.0443L12.5134 14.7169C12.6383 14.6674 12.7242 14.6096 12.6617 14.4527C12.5951 14.2941 12.4739 14.3433 12.3684 14.3866L11.1313 14.9001C11.0689 14.9248 11.0064 14.9744 10.9673 15.0322C10.9361 15.0817 10.9127 15.1643 10.9283 15.2138C10.9435 15.2406 10.985 15.2569 11.023 15.2719C11.0435 15.28 11.063 15.2877 11.0767 15.2964ZM11.239 16.337C11.1014 16.339 10.9567 16.3412 10.9283 16.1385C10.9049 15.9733 11.061 15.8165 11.2641 15.8165L12.3684 15.8433L12.384 15.844C12.5914 15.8522 12.8027 15.8605 12.7789 16.1121C12.7617 16.3474 12.6264 16.3428 12.4544 16.337C12.4266 16.336 12.3978 16.335 12.3684 16.335L11.239 16.337ZM14.1375 5.52597C14.0906 5.51771 14.0672 5.51771 14.0516 5.51771C14.036 5.51771 14.0126 5.51771 13.9969 5.52597C13.4191 5.71585 12.9741 6.08736 12.6383 6.61574C12.6149 6.64876 12.6461 6.74783 12.6773 6.78085C13.0443 7.23493 13.5284 7.4826 14.0828 7.56516C14.1326 7.57042 14.1824 7.56897 14.2423 7.56723C14.2763 7.56624 14.3137 7.56516 14.3561 7.56516C13.7002 6.93772 13.7315 6.26074 14.1375 5.52597ZM16.4253 6.16992C15.9881 6.8469 15.4415 7.34225 14.6528 7.51562C15.2228 6.81388 15.1057 6.14515 14.5513 5.45166C15.2931 5.45992 15.8709 5.74062 16.4253 6.16992Z" fill="currentColor"/>
<path d="M33.1373 10.7H34.3273V20.5H33.1373V10.7ZM36.0773 20.5H33.7953V19.31H36.0773C36.628 19.31 37.132 19.226 37.5893 19.058C38.0467 18.8807 38.4387 18.6333 38.7653 18.316C39.092 17.9893 39.344 17.5973 39.5213 17.14C39.6987 16.6827 39.7873 16.1693 39.7873 15.6C39.7873 15.0307 39.6987 14.5173 39.5213 14.06C39.344 13.6027 39.092 13.2153 38.7653 12.898C38.4387 12.5713 38.0467 12.324 37.5893 12.156C37.132 11.9787 36.628 11.89 36.0773 11.89H33.7953V10.7H36.0773C37.0293 10.7 37.874 10.9053 38.6113 11.316C39.3487 11.7267 39.9273 12.3007 40.3473 13.038C40.7673 13.766 40.9773 14.62 40.9773 15.6C40.9773 16.58 40.7673 17.4387 40.3473 18.176C39.9273 18.904 39.3487 19.4733 38.6113 19.884C37.874 20.2947 37.0293 20.5 36.0773 20.5ZM42.023 17.28C42.023 16.6267 42.1676 16.048 42.457 15.544C42.7556 15.04 43.157 14.6433 43.661 14.354C44.165 14.0647 44.7296 13.92 45.355 13.92C45.9896 13.92 46.5543 14.0647 47.049 14.354C47.553 14.6433 47.9496 15.04 48.239 15.544C48.5376 16.048 48.687 16.6267 48.687 17.28C48.687 17.924 48.5376 18.5027 48.239 19.016C47.9496 19.52 47.553 19.9167 47.049 20.206C46.5543 20.4953 45.9896 20.64 45.355 20.64C44.7296 20.64 44.165 20.4953 43.661 20.206C43.157 19.9167 42.7556 19.52 42.457 19.016C42.1676 18.5027 42.023 17.924 42.023 17.28ZM43.157 17.28C43.157 17.728 43.2503 18.1247 43.437 18.47C43.633 18.8153 43.8943 19.0907 44.221 19.296C44.557 19.492 44.935 19.59 45.355 19.59C45.775 19.59 46.1483 19.492 46.475 19.296C46.811 19.0907 47.0723 18.8153 47.259 18.47C47.455 18.1247 47.553 17.728 47.553 17.28C47.553 16.832 47.455 16.4353 47.259 16.09C47.0723 15.7353 46.811 15.46 46.475 15.264C46.1483 15.068 45.775 14.97 45.355 14.97C44.935 14.97 44.557 15.068 44.221 15.264C43.8943 15.46 43.633 15.7353 43.437 16.09C43.2503 16.4353 43.157 16.832 43.157 17.28ZM48.2375 21.956C48.3402 22.1147 48.4895 22.236 48.6855 22.32C48.8722 22.4133 49.0915 22.46 49.3435 22.46C49.5582 22.46 49.7682 22.362 49.9735 22.166C50.1882 21.9793 50.2955 21.6573 50.2955 21.2V10.7H51.4155V21.34C51.4155 21.7227 51.3642 22.054 51.2615 22.334C51.1682 22.614 51.0282 22.8473 50.8415 23.034C50.6549 23.2207 50.4262 23.356 50.1555 23.44C49.8942 23.5333 49.6002 23.58 49.2735 23.58C49.0309 23.58 48.7975 23.538 48.5735 23.454C48.3402 23.3793 48.1442 23.286 47.9855 23.174C47.8175 23.0713 47.6962 22.9733 47.6215 22.88L48.2375 21.956ZM56.0808 20.64C55.4835 20.64 54.9515 20.5 54.4848 20.22C54.0275 19.9307 53.6682 19.534 53.4068 19.03C53.1548 18.526 53.0288 17.9427 53.0288 17.28C53.0288 16.608 53.1595 16.02 53.4208 15.516C53.6915 15.012 54.0648 14.62 54.5408 14.34C55.0262 14.06 55.5862 13.92 56.2208 13.92C56.8555 13.92 57.3968 14.0553 57.8448 14.326C58.3022 14.5873 58.6522 14.9653 58.8948 15.46C59.1375 15.9547 59.2588 16.5427 59.2588 17.224C59.2588 17.2893 59.2542 17.3593 59.2448 17.434C59.2448 17.4993 59.2448 17.5413 59.2448 17.56H53.7428V16.608H58.3628L57.9148 17.252C57.9428 17.2053 57.9708 17.1353 57.9988 17.042C58.0268 16.9393 58.0408 16.8553 58.0408 16.79C58.0408 16.4073 57.9615 16.076 57.8028 15.796C57.6535 15.516 57.4435 15.2967 57.1728 15.138C56.9022 14.9793 56.5848 14.9 56.2208 14.9C55.7915 14.9 55.4228 14.9933 55.1148 15.18C54.8162 15.3573 54.5828 15.6187 54.4148 15.964C54.2562 16.3 54.1722 16.7153 54.1628 17.21C54.1628 17.714 54.2422 18.1433 54.4008 18.498C54.5595 18.8527 54.7928 19.1233 55.1008 19.31C55.4088 19.4967 55.7822 19.59 56.2208 19.59C56.6595 19.59 57.0468 19.4967 57.3828 19.31C57.7188 19.114 58.0035 18.82 58.2368 18.428L59.1468 19.002C58.8108 19.5433 58.3862 19.954 57.8728 20.234C57.3688 20.5047 56.7715 20.64 56.0808 20.64ZM59.6088 14.06H60.8688L62.4788 18.246L64.2288 13.57L66.1048 18.274L67.7288 14.06H68.9888L66.1888 20.99L64.2428 16.3L62.4088 20.99L59.6088 14.06ZM72.3914 20.64C71.794 20.64 71.262 20.5 70.7954 20.22C70.338 19.9307 69.9787 19.534 69.7174 19.03C69.4654 18.526 69.3394 17.9427 69.3394 17.28C69.3394 16.608 69.47 16.02 69.7314 15.516C70.002 15.012 70.3754 14.62 70.8514 14.34C71.3367 14.06 71.8967 13.92 72.5314 13.92C73.166 13.92 73.7074 14.0553 74.1554 14.326C74.6127 14.5873 74.9627 14.9653 75.2054 15.46C75.448 15.9547 75.5694 16.5427 75.5694 17.224C75.5694 17.2893 75.5647 17.3593 75.5554 17.434C75.5554 17.4993 75.5554 17.5413 75.5554 17.56H70.0534V16.608H74.6734L74.2254 17.252C74.2534 17.2053 74.2814 17.1353 74.3094 17.042C74.3374 16.9393 74.3514 16.8553 74.3514 16.79C74.3514 16.4073 74.272 16.076 74.1134 15.796C73.964 15.516 73.754 15.2967 73.4834 15.138C73.2127 14.9793 72.8954 14.9 72.5314 14.9C72.102 14.9 71.7334 14.9933 71.4254 15.18C71.1267 15.3573 70.8934 15.6187 70.7254 15.964C70.5667 16.3 70.4827 16.7153 70.4734 17.21C70.4734 17.714 70.5527 18.1433 70.7114 18.498C70.87 18.8527 71.1034 19.1233 71.4114 19.31C71.7194 19.4967 72.0927 19.59 72.5314 19.59C72.97 19.59 73.3574 19.4967 73.6934 19.31C74.0294 19.114 74.314 18.82 74.5474 18.428L75.4574 19.002C75.1214 19.5433 74.6967 19.954 74.1834 20.234C73.6794 20.5047 73.082 20.64 72.3914 20.64ZM78.2244 14.06V20.5H77.1044V14.06H78.2244ZM80.1704 15.292C80.0211 15.18 79.8858 15.1007 79.7644 15.054C79.6431 14.998 79.4891 14.97 79.3024 14.97C79.0224 14.97 78.8031 15.04 78.6444 15.18C78.4858 15.32 78.3738 15.5113 78.3084 15.754C78.2524 15.9967 78.2244 16.272 78.2244 16.58H77.7204C77.7204 16.0667 77.8091 15.614 77.9864 15.222C78.1731 14.8207 78.4111 14.5033 78.7004 14.27C78.9898 14.0367 79.2838 13.92 79.5824 13.92C79.8158 13.92 80.0304 13.9527 80.2264 14.018C80.4318 14.074 80.6184 14.1907 80.7864 14.368L80.1704 15.292ZM81.9033 9.58H83.0233V20.5H81.9033V9.58ZM90.2398 14.06L86.0398 23.58H84.7798L86.5438 19.59L84.0798 14.06H85.4098L87.4538 19.1L86.9918 19.044L88.9798 14.06H90.2398Z" fill="currentColor"/>
</svg>
